<?xml version="1.0" standalone="no"?>
<!DOCTYPE svg PUBLIC "-//W3C//DTD SVG 20010904//EN"
 "http://www.w3.org/TR/2001/REC-SVG-20010904/DTD/svg10.dtd">
<svg version="1.0" xmlns="http://www.w3.org/2000/svg"
 width="1280.000000pt" height="1236.000000pt" viewBox="0 0 1280.000000 1236.000000"
 preserveAspectRatio="xMidYMid meet">
<metadata>
Created by potrace 1.15, written by Peter Selinger 2001-2017
</metadata>
<g transform="translate(0.000000,1236.000000) scale(0.100000,-0.100000)"
fill="#000000" stroke="none">
<path d="M3931 12350 c-128 -27 -258 -90 -473 -227 -16 -10 -28 -21 -28 -24 0
-9 45 -16 179 -30 98 -9 183 -26 143 -28 -30 -2 -185 -122 -273 -212 -100
-103 -234 -283 -330 -441 -105 -174 -152 -314 -184 -544 -20 -143 -20 -500 0
-699 16 -158 21 -192 55 -370 34 -178 34 -175 20 -175 -21 0 -102 55 -142 97
-43 46 -139 187 -175 261 -14 29 -27 51 -29 49 -9 -8 17 -558 31 -672 36 -303
105 -580 202 -815 119 -290 324 -595 527 -788 153 -144 255 -199 531 -286 181
-58 233 -85 274 -142 42 -57 59 -100 81 -201 10 -47 20 -87 23 -89 2 -2 32 26
67 63 35 38 181 187 325 333 144 146 279 288 302 315 90 111 213 278 213 290
0 6 9 20 19 29 18 17 19 16 29 -31 6 -26 18 -101 28 -165 10 -68 23 -118 29
-118 10 0 320 617 364 728 138 338 214 672 257 1117 23 240 23 862 0 1113 -33
364 -90 613 -167 732 -21 33 -43 60 -48 60 -9 0 -197 211 -383 430 -58 69
-115 134 -127 144 -11 11 -21 25 -21 33 0 7 -9 13 -20 13 -24 0 -24 -2 -3 -43
39 -76 118 -455 99 -475 -4 -3 -78 64 -164 150 -107 107 -204 193 -306 269
-372 278 -516 345 -761 354 -66 2 -140 0 -164 -5z m286 -461 c173 -76 367
-174 458 -233 110 -72 194 -144 452 -387 122 -115 224 -209 226 -209 3 0 8 18
12 40 14 84 29 54 71 -145 116 -551 124 -609 124 -871 0 -299 -17 -475 -75
-789 -60 -326 -155 -738 -175 -759 -8 -8 -39 79 -55 154 -11 53 -25 76 -36 59
-5 -8 -9 -27 -9 -43 0 -78 -138 -380 -230 -507 -60 -81 -206 -239 -222 -239
-22 0 5 212 42 320 33 97 104 239 147 292 21 25 74 86 117 135 160 179 226
328 226 510 0 61 -1 63 -25 63 -14 0 -125 -23 -246 -51 -122 -27 -224 -48
-227 -45 -2 3 13 29 35 58 45 59 148 242 194 346 70 154 122 332 155 527 26
148 26 499 0 615 -60 274 -210 525 -423 706 -35 30 -68 52 -73 49 -7 -5 48
-121 84 -177 20 -31 193 -436 221 -519 29 -83 45 -324 25 -383 -6 -20 -15 -36
-18 -36 -8 0 -67 99 -119 200 l-38 75 -3 -43 c-2 -24 2 -75 7 -112 24 -150 10
-514 -24 -655 -36 -145 -172 -354 -338 -518 -61 -59 -107 -110 -104 -113 3 -4
35 1 70 11 36 10 69 16 75 14 9 -4 -58 -100 -144 -206 -19 -23 -34 -43 -34
-45 0 -7 212 12 354 31 215 30 212 31 149 -27 -120 -108 -257 -290 -331 -437
-80 -162 -109 -272 -132 -515 -6 -63 -12 -116 -14 -117 -1 -2 -59 12 -127 31
-146 41 -328 114 -493 199 -133 69 -234 154 -312 263 -82 115 -171 330 -223
539 -24 97 -101 491 -101 517 0 21 -3 21 169 -13 91 -19 161 -24 161 -14 0 4
-7 19 -15 35 -20 39 -81 289 -100 415 -11 66 -18 206 -22 416 l-6 315 43 145
c87 291 150 424 298 622 142 191 267 304 465 419 26 15 47 35 47 44 0 9 -14
34 -31 55 -17 21 -28 39 -25 39 3 0 58 -23 123 -51z"/>
<path d="M7671 12234 c-110 -16 -266 -55 -354 -88 -138 -52 -319 -156 -462
-264 -144 -110 -396 -382 -354 -382 12 0 84 41 152 85 42 29 48 18 13 -28 -90
-121 -231 -420 -311 -663 -72 -218 -201 -762 -208 -874 -4 -64 -3 -64 14 -40
10 14 45 62 78 108 34 45 61 87 61 92 0 6 5 10 10 10 13 0 13 -12 -4 -62 -14
-41 -101 -357 -167 -604 -28 -109 -32 -136 -36 -314 -7 -268 8 -354 119 -670
28 -80 61 -166 74 -192 14 -27 21 -48 18 -48 -4 0 -26 17 -49 38 -115 102
-145 124 -145 104 0 -35 22 -85 98 -222 98 -178 165 -272 291 -402 205 -214
375 -313 767 -448 345 -118 935 -290 998 -290 31 0 36 3 32 18 -3 9 -10 46
-16 81 -11 60 -10 66 15 116 30 62 102 132 265 260 237 184 472 456 642 743
79 132 235 438 295 577 36 82 113 310 113 332 0 7 -7 13 -15 13 -8 0 -15 -7
-15 -16 0 -9 -9 -28 -21 -42 -38 -50 -145 -197 -178 -244 -17 -27 -37 -48 -42
-48 -6 0 -8 3 -5 8 6 10 98 316 124 412 25 91 77 338 98 469 13 73 18 193 21
495 5 421 1 506 -23 506 -9 0 -14 -10 -14 -27 0 -37 -82 -352 -125 -481 -60
-177 -124 -310 -145 -297 -11 7 -28 143 -35 280 -15 275 -55 527 -120 751 -59
208 -130 356 -252 526 -58 83 -293 326 -411 426 -86 74 -83 84 23 97 80 10
105 16 105 25 0 12 -128 72 -220 103 -233 78 -478 103 -699 71z m262 -443 c17
-6 16 -8 -7 -19 -48 -22 -46 -24 157 -112 307 -134 523 -336 648 -605 135
-292 182 -527 228 -1127 7 -95 13 -123 31 -147 20 -29 26 -31 84 -31 87 0 102
-17 99 -114 -2 -130 -48 -277 -128 -411 -46 -78 -172 -252 -198 -274 -29 -24
-19 -39 33 -50 28 -6 58 -11 66 -11 23 0 1 -35 -70 -109 l-61 -64 60 6 c33 4
83 10 112 13 l52 7 -14 -59 c-18 -77 -80 -210 -144 -307 -102 -156 -266 -303
-653 -587 -99 -73 -183 -128 -188 -124 -8 10 -50 217 -50 251 0 15 5 20 18 18
9 -2 38 -7 65 -10 42 -6 47 -9 47 -31 0 -17 5 -24 20 -24 15 0 53 56 163 243
236 397 312 540 410 773 48 116 86 248 74 261 -3 2 -41 -1 -85 -7 -44 -7 -87
-10 -95 -8 -13 2 -5 31 44 158 33 85 67 165 75 178 14 21 13 22 -13 22 -16 0
-57 -9 -92 -20 -36 -11 -67 -18 -69 -15 -2 2 7 19 21 37 60 79 97 275 97 508
0 252 -31 352 -180 580 -103 158 -360 401 -360 340 0 -5 7 -13 15 -17 25 -14
181 -256 224 -348 52 -108 114 -297 132 -395 7 -41 13 -136 12 -210 0 -228
-53 -383 -193 -570 -82 -109 -152 -183 -229 -243 -29 -23 -49 -43 -44 -44 10
-4 204 66 315 113 32 13 62 24 68 24 13 0 -98 -134 -238 -287 -67 -74 -88
-103 -75 -103 11 0 98 25 194 55 95 30 180 55 187 55 19 0 15 -93 -8 -184 -39
-155 -104 -231 -276 -325 -120 -66 -254 -151 -312 -198 -24 -19 -44 -34 -46
-32 -1 2 -23 58 -49 124 -64 167 -76 195 -85 195 -29 0 -87 -207 -102 -358
-10 -108 2 -356 22 -453 6 -32 9 -62 5 -65 -18 -18 -498 214 -757 365 -140 82
-200 127 -200 151 0 4 24 11 53 15 91 11 92 12 63 49 -39 52 -148 252 -189
347 -137 319 -161 600 -81 944 34 146 149 536 224 757 17 48 30 91 30 96 0 5
-36 2 -80 -6 -45 -8 -83 -12 -86 -9 -13 13 150 561 217 730 76 191 183 382
257 460 86 90 312 210 445 237 52 10 365 11 390 1z"/>
<path d="M10567 9932 c-171 -113 -346 -341 -506 -662 -164 -330 -255 -600
-310 -919 -11 -62 -22 -115 -25 -118 -2 -3 -10 14 -16 37 -28 105 -40 219 -46
462 l-7 261 -24 -29 c-49 -62 -169 -363 -216 -546 -29 -108 -62 -279 -77 -393
-29 -229 -29 -644 0 -875 53 -411 184 -815 535 -1655 137 -329 194 -494 202
-587 3 -38 3 -68 0 -68 -7 0 -130 152 -170 209 -16 23 -32 41 -37 41 -11 0 0
-41 16 -60 7 -9 50 -91 94 -182 l81 -167 10 -133 c5 -73 11 -138 14 -145 2 -8
24 -5 77 9 106 28 305 20 433 -18 75 -22 115 -27 247 -31 306 -10 475 41 782
235 95 60 142 98 232 191 343 352 585 775 781 1361 84 252 164 567 163 642 -1
21 -3 21 -31 -12 -17 -19 -82 -99 -145 -177 -63 -78 -119 -145 -125 -149 -8
-5 -10 4 -6 27 3 19 17 104 30 189 41 254 50 392 51 780 1 511 -18 678 -150
1340 -50 247 -73 340 -84 340 -5 0 -13 -22 -20 -49 -21 -87 -58 -195 -68 -199
-5 -1 -13 10 -16 25 -23 89 -225 500 -325 657 -85 132 -103 172 -99 214 5 56
44 72 180 72 59 0 109 4 112 9 12 19 -8 42 -62 68 -57 28 -58 28 -262 28 -155
0 -227 -5 -292 -18 -239 -48 -512 -179 -747 -359 -85 -65 -127 -86 -143 -70
-19 19 -10 134 22 282 45 202 43 206 -53 142z m928 -596 c77 -45 190 -216 266
-401 22 -55 71 -190 109 -300 85 -249 86 -253 116 -292 19 -26 33 -33 58 -33
25 0 35 -6 44 -24 31 -68 45 -174 67 -496 29 -431 18 -644 -60 -1130 -33 -205
-43 -311 -34 -377 10 -73 20 -83 85 -83 63 0 72 -14 49 -80 -51 -144 -321
-562 -484 -749 -116 -132 -273 -239 -466 -318 -64 -26 -145 -43 -145 -30 0 1
38 41 84 89 68 71 94 108 139 195 62 121 177 393 196 465 15 52 31 55 32 5 0
-18 6 -50 13 -72 l11 -39 22 30 c39 54 221 545 282 758 81 283 95 400 95 811
0 346 -3 399 -46 663 -20 125 -22 132 -44 132 -13 0 -26 -5 -29 -10 -7 -12
-148 -108 -170 -116 -12 -5 -15 6 -15 64 0 81 -35 195 -102 327 -58 116 -235
382 -259 388 -10 3 -19 11 -19 19 0 13 -57 44 -66 35 -2 -2 13 -38 35 -78 59
-110 194 -412 225 -504 35 -101 44 -276 27 -510 -6 -88 -14 -203 -17 -255 l-5
-95 31 35 c17 19 90 118 162 218 71 101 134 180 138 175 10 -10 -6 -514 -20
-643 -38 -347 -92 -537 -251 -883 -34 -73 -64 -136 -68 -140 -4 -4 -27 66 -50
155 -55 209 -55 211 -68 215 -6 2 -12 -42 -16 -121 -7 -135 -34 -261 -112
-521 -54 -181 -74 -223 -139 -293 -82 -88 -285 -265 -377 -328 -44 -31 -110
-64 -163 -83 -50 -18 -96 -37 -103 -43 -18 -14 -19 -8 -33 167 -26 320 -44
377 -324 985 -336 728 -363 821 -373 1277 -6 258 2 357 34 465 l15 53 21 -40
c20 -39 129 -299 169 -405 20 -51 22 -53 28 -29 4 14 11 66 14 115 11 128 62
488 87 602 39 178 93 293 227 484 87 123 133 173 154 166 9 -3 16 -43 23 -138
11 -142 23 -169 48 -108 21 50 143 244 198 314 113 143 257 239 519 345 116
47 173 51 235 15z"/>
<path d="M1443 9188 c3 -18 8 -40 11 -48 5 -13 -10 -15 -97 -16 -120 -2 -184
-18 -399 -97 -170 -63 -163 -66 -127 55 11 39 18 73 15 76 -19 18 -238 -150
-357 -274 -78 -81 -130 -160 -169 -254 -35 -85 -67 -213 -76 -307 -3 -40 -10
-73 -14 -73 -5 0 -24 28 -44 63 -56 98 -52 95 -70 52 -9 -21 -29 -100 -43
-174 -25 -128 -27 -154 -27 -421 -1 -396 35 -665 133 -1000 67 -232 226 -554
324 -657 38 -40 20 -43 -25 -5 -18 15 -57 45 -85 66 -29 21 -53 41 -53 46 0 4
-36 43 -79 86 -84 83 -209 259 -218 307 -5 26 -27 46 -38 35 -2 -2 9 -62 25
-133 36 -158 38 -200 10 -215 -26 -14 -26 -65 -1 -185 57 -266 159 -475 331
-681 95 -113 289 -277 385 -327 64 -32 25 -31 -110 3 -69 17 -130 30 -137 28
-6 -2 8 -16 33 -30 24 -13 111 -66 193 -116 172 -106 176 -101 -69 -77 -221
22 -208 23 -200 -27 14 -85 152 -288 268 -394 158 -143 528 -351 812 -455 296
-108 439 -137 701 -142 l132 -2 -2 195 c-1 227 9 274 91 419 84 148 187 231
347 280 65 20 195 29 209 14 9 -8 -122 -82 -146 -83 -12 0 -17 -6 -15 -17 3
-15 16 -19 75 -21 91 -4 133 16 218 102 102 103 165 253 201 479 31 196 34
944 4 1142 -26 176 -99 405 -191 604 -21 46 -39 86 -39 88 0 7 87 -91 134
-151 23 -28 45 -53 49 -55 4 -1 19 -21 33 -42 13 -21 28 -39 34 -39 30 0 41
242 16 360 -58 272 -244 631 -496 960 -151 197 -506 525 -775 716 -229 163
-604 374 -664 374 -21 0 -23 -3 -18 -32z m172 -733 c185 -39 363 -136 663
-363 170 -128 204 -158 265 -237 171 -220 246 -363 268 -508 14 -92 2 -126
-49 -141 -60 -17 -56 -69 24 -308 124 -371 144 -477 144 -759 0 -237 -15 -358
-72 -584 l-43 -170 -40 -19 c-59 -29 -113 -27 -137 6 -41 54 -21 212 49 385
19 48 41 120 49 161 15 79 19 228 6 236 -4 2 -34 -47 -67 -110 -33 -62 -63
-114 -66 -114 -3 0 -7 60 -8 133 -3 226 -20 495 -37 575 -24 116 -88 303 -145
421 -49 103 -209 379 -251 433 -12 15 -19 30 -16 33 3 3 68 -10 144 -28 202
-50 204 -51 204 -26 0 12 -17 53 -37 93 -30 56 -67 101 -183 217 -80 80 -176
169 -215 197 -142 104 -516 266 -599 260 l-41 -4 67 -32 c92 -44 382 -211 472
-271 103 -70 212 -168 241 -218 14 -23 25 -45 25 -49 0 -4 -88 -4 -195 -1
l-195 7 17 -28 c10 -15 30 -43 44 -62 74 -95 284 -486 358 -664 98 -235 131
-390 131 -612 0 -212 -47 -504 -101 -631 -10 -24 -14 -43 -9 -43 15 0 148 38
160 45 17 10 11 -22 -7 -36 -22 -19 -79 -144 -98 -215 -8 -32 -19 -93 -25
-137 -12 -101 -43 -167 -113 -246 -31 -34 -72 -87 -92 -117 -63 -95 -128 -256
-140 -347 l-6 -48 -37 7 c-112 18 -277 72 -374 120 -65 33 -295 180 -330 211
-31 28 -20 33 62 33 95 0 98 5 50 100 -46 92 -48 90 85 90 144 0 149 12 22 59
-144 53 -313 127 -379 167 -106 64 -268 231 -268 275 0 18 9 19 120 19 70 0
120 4 120 10 0 17 -60 77 -90 90 -16 7 -32 20 -35 29 -3 9 -27 32 -53 51 -72
53 -132 104 -132 111 0 20 79 28 325 33 258 4 325 9 325 26 0 4 -26 23 -57 43
-192 118 -377 285 -501 451 -159 214 -227 410 -252 730 -11 142 -14 639 -3
649 3 4 27 -9 53 -27 l48 -34 -6 167 c-4 154 -3 173 18 237 21 66 78 174 91
174 9 0 19 -81 19 -146 0 -62 11 -69 28 -20 25 68 139 201 207 241 35 21 91
35 190 49 65 9 333 -3 410 -19z"/>
<path d="M5595 7104 c-16 -2 -66 -9 -110 -15 -44 -6 -147 -24 -230 -40 -234
-46 -254 -57 -149 -80 30 -7 51 -15 47 -19 -4 -4 -53 -19 -108 -35 -274 -76
-462 -191 -700 -430 -155 -154 -234 -261 -306 -410 -92 -191 -151 -394 -239
-815 -69 -331 -157 -637 -187 -647 -7 -3 -13 16 -17 51 -3 31 -9 81 -12 111
-3 30 -9 55 -13 55 -4 0 -13 -22 -19 -48 -14 -63 -99 -210 -165 -289 -74 -87
-156 -157 -457 -392 -319 -248 -516 -437 -622 -596 -121 -181 -222 -414 -265
-608 -27 -125 -25 -425 6 -567 70 -329 257 -687 471 -901 106 -107 149 -133
331 -200 169 -62 263 -112 427 -229 48 -33 74 -40 50 -12 -8 9 -36 55 -63 102
-99 175 -95 160 -37 131 20 -10 128 -48 240 -85 l202 -66 123 1 122 1 -70 22
c-38 13 -117 45 -175 73 -96 45 -106 53 -118 87 -8 21 -11 40 -8 43 9 9 424
-146 529 -197 141 -70 246 -144 403 -286 446 -403 906 -694 1229 -779 174 -45
496 -45 720 0 107 21 269 71 327 101 52 26 128 94 128 114 0 17 -48 7 -139
-30 -52 -21 -103 -33 -170 -40 -90 -9 -314 -19 -309 -15 2 2 84 38 183 80 426
184 511 232 981 553 152 103 281 178 552 322 182 96 392 195 392 184 0 -3 -7
-19 -17 -37 -30 -58 -93 -260 -108 -346 -8 -46 -15 -138 -15 -204 l0 -121 38
63 c109 180 387 375 667 466 110 36 265 69 524 110 250 40 378 87 539 198 87
60 112 89 158 180 60 117 75 197 81 413 5 152 2 212 -11 295 -10 57 -19 112
-22 122 -5 16 -1 16 48 -4 29 -11 59 -25 65 -31 25 -20 14 51 -23 143 -46 119
-43 136 16 84 25 -22 69 -60 99 -84 l54 -45 -6 185 c-6 195 -12 231 -79 444
-109 351 -213 533 -681 1195 -88 124 -161 230 -164 236 -2 6 39 15 114 23 65
6 122 16 126 20 5 5 -9 19 -30 31 -69 42 -194 176 -266 285 -39 60 -116 246
-197 480 -128 367 -233 608 -337 770 -157 243 -378 385 -723 464 -128 29 -217
41 -416 55 -100 7 -186 16 -193 20 -6 4 -8 18 -5 30 5 21 1 24 -33 29 -21 2
-103 0 -183 -6 -80 -5 -313 -10 -518 -11 l-374 -1 -24 28 c-38 45 -22 61 109
109 77 28 66 33 -253 113 -118 30 -267 64 -330 75 -108 20 -339 34 -405 24z
m291 -738 c45 -8 98 -21 118 -30 35 -15 36 -16 36 -72 0 -55 2 -59 44 -100 45
-43 148 -97 241 -127 119 -39 333 -46 751 -26 163 8 229 8 237 0 8 -8 5 -23
-11 -56 -27 -57 -27 -57 131 -5 152 50 269 70 417 70 269 0 392 -52 586 -245
157 -155 204 -251 304 -615 62 -226 95 -330 126 -392 31 -62 30 -74 -8 -94
-58 -30 -62 -57 -19 -142 54 -107 255 -372 392 -516 180 -191 321 -406 403
-613 38 -95 93 -293 98 -353 l3 -35 -92 -11 c-160 -20 -154 -11 -71 -109 39
-47 75 -85 80 -85 4 0 8 -4 8 -10 0 -6 -32 -10 -76 -10 -41 0 -73 -4 -70 -8 3
-5 21 -80 41 -168 82 -360 51 -590 -98 -732 -67 -62 -137 -98 -297 -150 -167
-55 -209 -61 -452 -69 -194 -6 -208 -5 -208 11 0 10 41 75 92 144 139 192 148
205 144 211 -2 3 -69 3 -148 0 -234 -10 -476 -78 -728 -204 -63 -31 -145 -75
-182 -96 -36 -22 -71 -39 -77 -39 -26 0 -7 306 25 418 20 72 81 198 108 224
30 30 248 132 334 157 39 12 109 26 155 31 108 13 324 2 343 -17 10 -11 14
-42 14 -119 0 -57 2 -104 5 -104 19 0 126 64 143 84 10 14 29 57 42 96 27 85
24 161 -12 260 -26 70 -117 213 -148 233 -11 6 -20 17 -20 24 0 7 -6 13 -13
13 -8 0 -22 9 -32 20 -18 20 -17 20 16 20 19 -1 68 -5 109 -10 41 -4 77 -6 80
-4 2 3 -71 79 -164 170 -92 90 -163 164 -158 164 5 0 79 -27 163 -59 425 -163
502 -192 506 -188 7 7 -36 106 -99 230 -55 108 -66 122 -122 163 -175 129
-302 206 -689 416 -274 148 -416 231 -504 294 -132 94 -221 231 -242 371 -13
82 -15 220 -3 226 4 2 48 -4 97 -14 147 -29 172 -22 90 27 -60 35 -186 173
-227 249 -32 59 -33 63 -32 180 0 101 4 128 22 169 26 57 26 56 8 56 -17 0
-73 -62 -89 -99 -6 -15 -13 -112 -16 -222 -5 -166 -9 -200 -23 -216 -52 -58
-47 -374 8 -522 85 -225 334 -461 749 -707 55 -33 112 -66 128 -73 49 -25 44
-27 -160 -62 -101 -17 -105 -21 -62 -66 20 -21 70 -81 111 -133 41 -52 82
-101 91 -109 9 -7 17 -17 17 -21 0 -4 -44 -10 -97 -14 -54 -4 -115 -10 -135
-13 l-37 -5 32 -23 c56 -39 250 -174 302 -211 28 -19 57 -39 65 -44 8 -5 12
-11 10 -13 -3 -3 -84 -15 -180 -27 -318 -39 -511 -91 -716 -191 -312 -152
-598 -424 -675 -643 -52 -150 -46 -334 16 -457 44 -88 217 -275 292 -317 8 -5
13 -14 9 -20 -3 -5 -57 -44 -118 -85 -133 -88 -398 -226 -550 -285 -115 -45
-408 -132 -445 -132 -49 0 -20 -18 40 -25 53 -6 106 -16 217 -41 24 -5 24 -6
5 -17 -32 -18 -364 -13 -448 7 -135 32 -161 51 -658 477 -152 130 -318 270
-370 311 -309 246 -645 426 -1067 572 -90 31 -165 56 -168 56 -2 0 -4 -29 -4
-65 0 -36 -4 -65 -9 -65 -4 0 -56 23 -115 50 -59 28 -111 48 -116 45 -4 -3
-16 -27 -26 -55 -13 -35 -23 -50 -36 -50 -46 0 -154 163 -183 278 -38 147 -35
515 6 682 29 121 109 281 230 460 121 179 219 284 356 379 69 47 110 85 160
147 l68 84 9 -70 c5 -38 13 -70 19 -70 35 0 173 212 229 354 39 98 115 326
177 531 262 869 328 1033 489 1206 140 152 405 270 752 334 180 33 174 31 165
53 -22 53 -24 52 71 52 49 0 126 -6 170 -14z"/>
</g>
</svg>
